<mxfile host="app.diagrams.net" modified="2024-03-25T00:42:01.651Z" agent="Mozilla/5.0 (Macintosh; Intel Mac OS X 10_15_7) AppleWebKit/537.36 (KHTML, like Gecko) Chrome/123.0.0.0 Safari/537.36" version="24.1.0" etag="wn3_uC34FuNIyfK_Qmki" type="github">
  <diagram name="Page-1" id="wHlxiufzxVUzgDj_41vB">
    <mxGraphModel>
      <root>
        <mxCell id="0" />
        <mxCell id="1" parent="0" />
      </root>
    </mxGraphModel>
  </diagram>
</mxfile>
